<svg xmlns:dc="http://purl.org/dc/elements/1.1/" xmlns:cc="http://creativecommons.org/ns#" xmlns:rdf="http://www.w3.org/1999/02/22-rdf-syntax-ns#" xmlns:svg="http://www.w3.org/2000/svg" xmlns="http://www.w3.org/2000/svg" xmlns:sodipodi="http://sodipodi.sourceforge.net/DTD/sodipodi-0.dtd" xmlns:inkscape="http://www.inkscape.org/namespaces/inkscape" version="1.1" x="0px" y="0px" viewBox="0 0 100 125"><g transform="translate(0,-952.36218)"><path style="font-size:medium;font-style:normal;font-variant:normal;font-weight:normal;font-stretch:normal;text-indent:0;text-align:start;text-decoration:none;line-height:normal;letter-spacing:normal;word-spacing:normal;text-transform:none;direction:ltr;block-progression:tb;writing-mode:lr-tb;text-anchor:start;baseline-shift:baseline;opacity:1;color:#000000;fill:#000000;fill-opacity:1;stroke:none;stroke-width:3.99999905000000000;marker:none;visibility:visible;display:inline;overflow:visible;enable-background:accumulate;font-family:Sans;-inkscape-font-specification:Sans" d="M 20.25 21 C 16.632678 21 14 24.31761 14 28 L 14 65 L 8 65 A 2.0001995 2.0001995 0 0 0 7.8125 65 A 2.0001995 2.0001995 0 0 0 6 67 L 6 72 C 6 75.6656 8.5828366 79 12.1875 79 L 87.8125 79 C 91.417163 79 94 75.6656 94 72 L 94 67 A 2.0001995 2.0001995 0 0 0 92 65 L 86 65 L 86 28 C 86 24.31761 83.367324 21 79.75 21 L 20.25 21 z M 20.25 25 L 79.75 25 C 80.841676 25 82 26.14239 82 28 L 82 65 L 56 65 A 2.0001995 2.0001995 0 0 0 54 67 L 54 68.4375 C 53.99917 68.4715 54.0022 68.468 54 68.5 C 53.98105 68.7706 53.90934 68.9134 53.875 69 L 46.125 69 C 46.09066 68.913 46.018948 68.7706 46 68.5 C 45.9978 68.468 46.00083 68.4705 46 68.4375 L 46 67 A 2.0001995 2.0001995 0 0 0 44 65 L 18 65 L 18 28 C 18 26.14239 19.158332 25 20.25 25 z M 56.84375 30.96875 A 2.0001995 2.0001995 0 0 0 55.28125 31.96875 L 41.28125 55.96875 A 2.0001995 2.0001995 0 1 0 44.71875 58 L 58.71875 34 A 2.0001995 2.0001995 0 0 0 56.84375 30.96875 z M 35.90625 33.96875 A 2.0001995 2.0001995 0 0 0 34.5625 34.59375 L 26.9375 42.59375 C 25.672303 43.92469 25.672303 46.04406 26.9375 47.375 L 34.5625 55.375 A 2.0001995 2.0001995 0 1 0 37.4375 52.59375 L 30.21875 45 L 37.4375 37.375 A 2.0001995 2.0001995 0 0 0 35.90625 33.96875 z M 63.84375 33.96875 A 2.0001995 2.0001995 0 0 0 62.5625 37.375 L 69.78125 45 L 62.5625 52.59375 A 2.0001995 2.0001995 0 1 0 65.4375 55.375 L 73.0625 47.375 C 74.327697 46.04406 74.327697 43.92469 73.0625 42.59375 L 65.4375 34.59375 A 2.0001995 2.0001995 0 0 0 63.84375 33.96875 z M 10 69 L 42.125 69 C 42.19641 69.8214 42.309753 70.6263 42.8125 71.375 C 43.407766 72.2615 44.591582 73 45.8125 73 L 54.1875 73 C 55.408418 73 56.592235 72.2615 57.1875 71.375 C 57.690246 70.6263 57.803591 69.8214 57.875 69 L 90 69 L 90 72 C 90 73.8743 88.861437 75 87.8125 75 L 12.1875 75 C 11.138563 75 10 73.8743 10 72 L 10 69 z " transform="translate(0,952.36218)"/></g><text x="0" y="115" fill="#000000" font-size="5px" font-weight="bold" font-family="'Helvetica Neue', Helvetica, Arial-Unicode, Arial, Sans-serif">Created by cindy clegane</text><text x="0" y="120" fill="#000000" font-size="5px" font-weight="bold" font-family="'Helvetica Neue', Helvetica, Arial-Unicode, Arial, Sans-serif">from the Noun Project</text></svg>